# xmcd CD database file
#
# Track frame offsets:
#	150
#	13609
#	28352
#	41434
#	55399
#	68811
#	82591
#	86621
#	100633
#	112316
#	127656
#	141673
#	155043
#	169866
#	184076
#	196541
#	210896
#	225128
#	239251
#	251873
#	265186
#	276981
#	289656
#	303371
#	314791
#	326941
#	340211
#
# Disc length: 4704 seconds
#
# Revision: 0
# Processed by: cddbd v1.5.2PL0 Copyright (c) Steve Scherf et al.
# Submitted via: CDex 1.51
#
DISCID=83125e1b
DTITLE=Charlie Parker - The Bebop Revolution 1945 - 1947
DYEAR=1947
DGENRE=Jazz
TTITLE0=Popity Pop
TTITLE1=Slim's Jam
TTITLE2=Diggin' Diz (Bongo Beep)
TTITLE3=Moose The Mooche
TTITLE4=Yardbird Suite
TTITLE5=Ornithology
TTITLE6=A Night In Tunisia (The Famous Alto Break)
TTITLE7=A Night In Tunisia
TTITLE8=Max Is Making Wax
TTITLE9=Lover Man
TTITLE10=The Gypsy
TTITLE11=Bebop (Dizzy's Fingers)
TTITLE12=This Is Always
TTITLE13=Dark Shadows
TTITLE14=Bird's Nest
TTITLE15=Cool Blues
TTITLE16=Relaxin' At Camarillo
TTITLE17=Cheers
TTITLE18=Carvin' The Bird
TTITLE19=Stupendous
TTITLE20=Donna Lee
TTITLE21=Chasin' The Bird
TTITLE22=Cheryl
TTITLE23=Buzzy
TTITLE24=Milestones
TTITLE25=Little Willie Leaps
TTITLE26=Half Nelson
EXTD=YEAR: 1947
EXTT0=
EXTT1=
EXTT2=
EXTT3=
EXTT4=
EXTT5=
EXTT6=
EXTT7=
EXTT8=
EXTT9=
EXTT10=
EXTT11=
EXTT12=
EXTT13=
EXTT14=
EXTT15=
EXTT16=
EXTT17=
EXTT18=
EXTT19=
EXTT20=
EXTT21=
EXTT22=
EXTT23=
EXTT24=
EXTT25=
EXTT26=
PLAYORDER=
